<svg width="49" height="49" viewBox="0 0 49 49" fill="none" xmlns="http://www.w3.org/2000/svg">
   <g id="logo">
      <path id="Ellipse 1"
         d="M48.0001 24.5C48.0001 29.9368 46.1149 35.2055 42.6658 39.4082C39.2167 43.611 34.4171 46.4878 29.0847 47.5485C23.7523 48.6091 18.2171 47.7881 13.4222 45.2252C8.62737 42.6622 4.86949 38.5161 2.78889 33.4931C0.7083 28.4701 0.433729 22.8811 2.01196 17.6783C3.5902 12.4756 6.92358 7.98102 11.4442 4.96047C15.9647 1.93991 21.3928 0.580255 26.8035 1.11316C32.2141 1.64606 37.2726 4.03856 41.1171 7.88299L38.5486 10.4515C35.2984 7.20129 31.0218 5.1786 26.4474 4.72807C21.8731 4.27754 17.284 5.42703 13.4622 7.9807C9.64038 10.5344 6.82224 14.3342 5.48795 18.7327C4.15367 23.1313 4.3858 27.8564 6.14479 32.103C7.90379 36.3496 11.0808 39.8549 15.1345 42.0217C19.1883 44.1884 23.8679 44.8826 28.376 43.9858C32.8842 43.0891 36.942 40.657 39.8579 37.1039C42.7739 33.5508 44.3677 29.0965 44.3677 24.5H48.0001Z"
         fill="white" />
      <path id="Ellipse 2"
         d="M16.0158 39.8057C12.4747 37.8429 9.72376 34.7129 8.23168 30.9492C6.73961 27.1854 6.59872 23.0208 7.83303 19.1648C9.06734 15.3088 11.6005 12.0001 15.0008 9.8024C18.4012 7.60473 22.4583 6.65406 26.481 7.11239C30.5037 7.57072 34.243 9.40968 37.0619 12.3159C39.8807 15.2222 41.6046 19.0159 41.9399 23.0508C42.2751 27.0856 41.201 31.1118 38.9005 34.4435C36.6 37.7751 33.2155 40.206 29.3236 41.322L28.578 38.7218C31.8683 37.7783 34.7297 35.7231 36.6746 32.9065C38.6195 30.0898 39.5276 26.6859 39.2442 23.2747C38.9607 19.8636 37.5033 16.6563 35.1202 14.1992C32.737 11.7422 29.5757 10.1875 26.1748 9.79998C22.7739 9.4125 19.3439 10.2162 16.4691 12.0742C13.5943 13.9322 11.4528 16.7295 10.4092 19.9894C9.36572 23.2494 9.48483 26.7703 10.7463 29.9523C12.0077 33.1343 14.3334 35.7805 17.3272 37.4399L16.0158 39.8057Z"
         fill="white" />
      <path id="Ellipse 3"
         d="M24.5001 12C27.392 12 30.1945 13.0027 32.43 14.8374C34.6655 16.672 36.1957 19.225 36.7599 22.0614C37.3241 24.8977 36.8873 27.842 35.5241 30.3925C34.1608 32.9429 31.9554 34.9418 29.2836 36.0485C26.6118 37.1552 23.6389 37.3012 20.8715 36.4618C18.1041 35.6223 15.7134 33.8492 14.1067 31.4446C12.5 29.0401 11.7768 26.1528 12.0603 23.2748C12.3437 20.3968 13.6163 17.7061 15.6612 15.6612L17.0274 17.0274C15.2986 18.7562 14.2227 21.031 13.9831 23.4642C13.7434 25.8973 14.3549 28.3383 15.7132 30.3712C17.0715 32.4041 19.0927 33.9031 21.4324 34.6128C23.772 35.3225 26.2854 35.1991 28.5442 34.2634C30.803 33.3278 32.6676 31.6379 33.8201 29.4817C34.9726 27.3254 35.3419 24.8363 34.8649 22.4383C34.3879 20.0404 33.0942 17.882 31.2043 16.3309C29.3143 14.7799 26.945 13.9321 24.5001 13.9321L24.5001 12Z"
         fill="white" />
      <path id="Ellipse 4"
         d="M17.0301 20.4442C17.9684 18.716 19.477 17.3666 21.2987 16.626C23.1204 15.8853 25.1426 15.7993 27.0206 16.3824C28.8987 16.9656 30.5165 18.1819 31.5983 19.8241C32.6801 21.4663 33.159 23.4328 32.9535 25.3886C32.7479 27.3443 31.8706 29.1683 30.471 30.5497C29.0714 31.9311 27.2361 32.7845 25.2778 32.9644C23.3195 33.1444 21.3594 32.6397 19.7315 31.5365C18.1036 30.4333 16.9086 28.7998 16.3501 26.9142L17.7273 26.5063C18.1914 28.0732 19.1845 29.4307 20.5373 30.3475C21.8901 31.2643 23.519 31.6836 25.1464 31.5341C26.7737 31.3846 28.2989 30.6754 29.462 29.5274C30.6251 28.3794 31.3542 26.8637 31.525 25.2384C31.6958 23.6132 31.2978 21.979 30.3988 20.6143C29.4998 19.2495 28.1554 18.2388 26.5947 17.7542C25.034 17.2695 23.3535 17.3411 21.8397 17.9566C20.3258 18.5721 19.0721 19.6934 18.2924 21.1296L17.0301 20.4442Z"
         fill="white" />
      <path id="Ellipse 5"
         d="M28.2197 27.0327C27.6337 27.8933 26.7675 28.524 25.7687 28.8175C24.7698 29.1111 23.7001 29.0491 22.7417 28.6423C21.7834 28.2356 20.9958 27.5091 20.513 26.5866C20.0303 25.6642 19.8823 24.603 20.0943 23.5837C20.3063 22.5644 20.8652 21.6502 21.6757 20.9968C22.4862 20.3433 23.4982 19.9912 24.5393 20.0002C25.5803 20.0093 26.586 20.3791 27.385 21.0466C28.184 21.714 28.7269 22.6379 28.921 23.6607L28.0934 23.8178C27.9356 22.9865 27.4944 22.2356 26.845 21.6931C26.1955 21.1505 25.3781 20.85 24.5319 20.8426C23.6858 20.8352 22.8632 21.1215 22.2044 21.6526C21.5456 22.1837 21.0914 22.9268 20.9191 23.7552C20.7467 24.5837 20.867 25.4463 21.2594 26.196C21.6517 26.9458 22.2919 27.5363 23.0709 27.8669C23.8498 28.1976 24.7193 28.2479 25.5312 28.0093C26.3431 27.7708 27.0471 27.2581 27.5234 26.5586L28.2197 27.0327Z"
         fill="white" />
      <path id="Ellipse 6"
         d="M23.7068 22.1292C24.2553 21.9457 24.8504 21.958 25.3909 22.1641C25.9313 22.3702 26.3835 22.7573 26.6705 23.2595C26.9575 23.7616 27.0615 24.3477 26.9648 24.918C26.8681 25.4882 26.5767 26.0073 26.1402 26.3868C25.7037 26.7662 25.1491 26.9826 24.5709 26.999C23.9928 27.0154 23.4268 26.8308 22.9695 26.4767C22.5122 26.1226 22.1918 25.6209 22.0629 25.0571C21.934 24.4932 22.0046 23.9021 22.2627 23.3845L23.1394 23.8216C22.9825 24.1364 22.9395 24.4959 23.0179 24.8388C23.0963 25.1817 23.2911 25.4868 23.5693 25.7021C23.8474 25.9174 24.1916 26.0297 24.5431 26.0197C24.8947 26.0097 25.232 25.8782 25.4975 25.6474C25.7629 25.4166 25.9402 25.101 25.999 24.7542C26.0578 24.4074 25.9945 24.051 25.82 23.7456C25.6454 23.4402 25.3704 23.2048 25.0418 23.0795C24.7131 22.9541 24.3512 22.9466 24.0176 23.0582L23.7068 22.1292Z"
         fill="white" />
      <circle id="Ellipse 7" cx="24.5001" cy="24.5" r="0.5" transform="rotate(-180 24.5001 24.5)"
         fill="white" />
   </g>

   <!-- social -->
   <g id='github'>
      <path id="Icon" fill-rule="evenodd" clip-rule="evenodd"
         d="M16 1C7.52835 1 0.666687 7.86167 0.666687 16.3333C0.666687 23.1183 5.05585 28.8492 11.1509 30.8808C11.9175 31.015 12.205 30.555 12.205 30.1525C12.205 29.7883 12.1859 28.5808 12.1859 27.2967C8.33335 28.0058 7.33669 26.3575 7.03002 25.495C6.85752 25.0542 6.11002 23.6933 5.45835 23.3292C4.92169 23.0417 4.15502 22.3325 5.43919 22.3133C6.64669 22.2942 7.50919 23.425 7.79669 23.885C9.17669 26.2042 11.3809 25.5525 12.2625 25.15C12.3967 24.1533 12.7992 23.4825 13.24 23.0992C9.82835 22.7158 6.26335 21.3933 6.26335 15.5283C6.26335 13.8608 6.85752 12.4808 7.83502 11.4075C7.68169 11.0242 7.14502 9.4525 7.98835 7.34417C7.98835 7.34417 9.27252 6.94167 12.205 8.91583C13.4317 8.57083 14.735 8.39833 16.0384 8.39833C17.3417 8.39833 18.645 8.57083 19.8717 8.91583C22.8042 6.9225 24.0884 7.34417 24.0884 7.34417C24.9317 9.4525 24.395 11.0242 24.2417 11.4075C25.2192 12.4808 25.8134 13.8417 25.8134 15.5283C25.8134 21.4125 22.2292 22.7158 18.8175 23.0992C19.3734 23.5783 19.8525 24.4983 19.8525 25.9358C19.8525 27.9867 19.8334 29.635 19.8334 30.1525C19.8334 30.555 20.1209 31.0342 20.8875 30.8808C26.9442 28.8492 31.3334 23.0992 31.3334 16.3333C31.3334 7.86167 24.4717 1 16 1Z"
         fill="white" />
   </g>

   <g id="tg" fill="#FFFFFF">
      <path
         d="M 26.070313 3.996094 C 25.734375 4.011719 25.417969 4.109375 25.136719 4.21875 L 25.132813 4.21875 C 24.847656 4.332031 23.492188 4.902344 21.433594 5.765625 C 19.375 6.632813 16.703125 7.757813 14.050781 8.875 C 8.753906 11.105469 3.546875 13.300781 3.546875 13.300781 L 3.609375 13.277344 C 3.609375 13.277344 3.25 13.394531 2.875 13.652344 C 2.683594 13.777344 2.472656 13.949219 2.289063 14.21875 C 2.105469 14.488281 1.957031 14.902344 2.011719 15.328125 C 2.101563 16.050781 2.570313 16.484375 2.90625 16.722656 C 3.246094 16.964844 3.570313 17.078125 3.570313 17.078125 L 3.578125 17.078125 L 8.460938 18.722656 C 8.679688 19.425781 9.949219 23.597656 10.253906 24.558594 C 10.433594 25.132813 10.609375 25.492188 10.828125 25.765625 C 10.933594 25.90625 11.058594 26.023438 11.207031 26.117188 C 11.265625 26.152344 11.328125 26.179688 11.390625 26.203125 C 11.410156 26.214844 11.429688 26.21875 11.453125 26.222656 L 11.402344 26.210938 C 11.417969 26.214844 11.429688 26.226563 11.441406 26.230469 C 11.480469 26.242188 11.507813 26.246094 11.558594 26.253906 C 12.332031 26.488281 12.953125 26.007813 12.953125 26.007813 L 12.988281 25.980469 L 15.871094 23.355469 L 20.703125 27.0625 L 20.8125 27.109375 C 21.820313 27.550781 22.839844 27.304688 23.378906 26.871094 C 23.921875 26.433594 24.132813 25.875 24.132813 25.875 L 24.167969 25.785156 L 27.902344 6.65625 C 28.007813 6.183594 28.035156 5.742188 27.917969 5.3125 C 27.800781 4.882813 27.5 4.480469 27.136719 4.265625 C 26.769531 4.046875 26.40625 3.980469 26.070313 3.996094 Z M 25.96875 6.046875 C 25.964844 6.109375 25.976563 6.101563 25.949219 6.222656 L 25.949219 6.234375 L 22.25 25.164063 C 22.234375 25.191406 22.207031 25.25 22.132813 25.308594 C 22.054688 25.371094 21.992188 25.410156 21.667969 25.28125 L 15.757813 20.75 L 12.1875 24.003906 L 12.9375 19.214844 C 12.9375 19.214844 22.195313 10.585938 22.59375 10.214844 C 22.992188 9.84375 22.859375 9.765625 22.859375 9.765625 C 22.886719 9.3125 22.257813 9.632813 22.257813 9.632813 L 10.082031 17.175781 L 10.078125 17.15625 L 4.242188 15.191406 L 4.242188 15.1875 C 4.238281 15.1875 4.230469 15.183594 4.226563 15.183594 C 4.230469 15.183594 4.257813 15.171875 4.257813 15.171875 L 4.289063 15.15625 L 4.320313 15.144531 C 4.320313 15.144531 9.53125 12.949219 14.828125 10.71875 C 17.480469 9.601563 20.152344 8.476563 22.207031 7.609375 C 24.261719 6.746094 25.78125 6.113281 25.867188 6.078125 C 25.949219 6.046875 25.910156 6.046875 25.96875 6.046875 Z" />
   </g>
</svg>